<svg width="26" height="26" viewBox="0 0 26 26" fill="none" xmlns="http://www.w3.org/2000/svg">
<g clip-path="url(#clip0_431_4330)">
<path d="M9.20901 1.10378C6.71112 1.97032 4.55695 3.61504 3.0629 5.79636C1.56885 7.97768 0.813682 10.5806 0.908313 13.2229C1.00294 15.8651 1.94239 18.4073 3.58865 20.4762C5.23492 22.545 7.50124 24.0314 10.0547 24.7171C12.1249 25.2512 14.2938 25.2747 16.375 24.7854C18.2604 24.3619 20.0035 23.4561 21.4336 22.1565C22.9221 20.7627 24.0024 18.9895 24.5586 17.0276C25.1632 14.8941 25.2707 12.6505 24.8731 10.469H13.2481V15.2913H19.9805C19.8459 16.0604 19.5576 16.7945 19.1327 17.4495C18.7079 18.1046 18.1552 18.6673 17.5078 19.1038C16.6857 19.6476 15.759 20.0135 14.7871 20.178C13.8124 20.3592 12.8126 20.3592 11.8379 20.178C10.85 19.9737 9.91545 19.566 9.09378 18.9807C7.77375 18.0463 6.7826 16.7189 6.26175 15.1878C5.73209 13.628 5.73209 11.937 6.26175 10.3772C6.6325 9.28389 7.24541 8.28842 8.05471 7.46511C8.98087 6.50563 10.1534 5.81979 11.4437 5.48283C12.734 5.14588 14.0921 5.17083 15.3692 5.55495C16.3668 5.86118 17.279 6.39623 18.0332 7.11745C18.7923 6.36224 19.5502 5.60508 20.3067 4.84597C20.6973 4.43776 21.1231 4.04909 21.5078 3.63112C20.3566 2.55979 19.0053 1.72616 17.5313 1.178C14.8471 0.203368 11.9101 0.177176 9.20901 1.10378Z" fill="white"/>
<path d="M9.20898 1.10375C11.9099 0.176519 14.8469 0.202022 17.5312 1.17602C19.0055 1.7279 20.3562 2.56554 21.5059 3.64086C21.1152 4.05883 20.7031 4.44945 20.3047 4.8557C19.5469 5.61222 18.7897 6.36612 18.0332 7.11742C17.279 6.39621 16.3667 5.86116 15.3691 5.55492C14.0925 5.16946 12.7344 5.14306 11.4438 5.47864C10.1532 5.81422 8.97991 6.49879 8.05273 7.45727C7.24342 8.28058 6.63052 9.27605 6.25977 10.3694L2.21094 7.23461C3.66017 4.36071 6.16943 2.16239 9.20898 1.10375Z" fill="#E33629"/>
<path d="M1.13671 10.3401C1.35433 9.26156 1.71563 8.21709 2.21093 7.23462L6.25976 10.3772C5.7301 11.937 5.7301 13.628 6.25976 15.1877C4.9108 16.2294 3.56119 17.2763 2.21093 18.3284C0.970992 15.8602 0.592832 13.0481 1.13671 10.3401Z" fill="#F8BD00"/>
<path d="M13.2481 10.467H24.8731C25.2707 12.6486 25.1631 14.8922 24.5586 17.0256C24.0024 18.9875 22.922 20.7607 21.4336 22.1545C20.127 21.135 18.8145 20.1233 17.5078 19.1038C18.1556 18.6668 18.7085 18.1036 19.1334 17.4478C19.5583 16.792 19.8464 16.0572 19.9805 15.2874H13.2481C13.2461 13.6819 13.2481 12.0745 13.2481 10.467Z" fill="#587DBD"/>
<path d="M2.20898 18.3284C3.55924 17.2867 4.90885 16.2398 6.25781 15.1877C6.7797 16.7194 7.77228 18.0469 9.09375 18.9807C9.91798 19.5633 10.8546 19.9677 11.8438 20.1682C12.8185 20.3495 13.8182 20.3495 14.793 20.1682C15.7648 20.0037 16.6916 19.6378 17.5137 19.094C18.8203 20.1135 20.1328 21.1252 21.4395 22.1448C20.0096 23.445 18.2664 24.3516 16.3809 24.7756C14.2996 25.2649 12.1307 25.2414 10.0605 24.7073C8.42325 24.2701 6.8939 23.4995 5.56836 22.4436C4.16535 21.3297 3.01944 19.926 2.20898 18.3284Z" fill="#319F43"/>
</g>
<defs>
<clipPath id="clip0_431_4330">
<rect width="25" height="25" fill="white" transform="translate(0.5 0.281494)"/>
</clipPath>
</defs>
</svg>
